# xmcd CD database file
#
# Track frame offsets:
#	150
#	16002
#	30252
#	43842
#	60450
#	75152
#	92030
#	108807
#	124277
#	139457
#	155467
#
# Disc length: 2336 seconds
#
# Revision: 0
# Processed by: cddbd v1.5.1PL2 Copyright (c) Steve Scherf et al.
# Submitted via: CDex 1.51
#
DISCID=7c091e0b
DTITLE=Earl Thomas Conley - Should've been over by now
DYEAR=2003
DGENRE=Country
TTITLE0=It Should've Been Over By Now
TTITLE1=Closer You Are
TTITLE2=I Ain't Crazy
TTITLE3=You Don't Have To Live With It
TTITLE4=Holding Her And Lovin' You
TTITLE5=Once in a Blue Moon
TTITLE6=Scared Money Never Wins
TTITLE7=Your Love's On the Line
TTITLE8=Don't Make It Easy for Me
TTITLE9=Don't Want To Be In Love Without You
TTITLE10=I Can't Win for Losing You
EXTD=YEAR: 2003
EXTT0=
EXTT1=
EXTT2=
EXTT3=
EXTT4=
EXTT5=
EXTT6=
EXTT7=
EXTT8=
EXTT9=
EXTT10=
PLAYORDER=
